<?xml version="1.0" encoding="UTF-8"?>
<svg xmlns="http://www.w3.org/2000/svg" width="330" height="180" version="1.1" viewBox="0 0 330 180">
  <defs>
    <style>
      .cls-1 {
        fill: #3f105e;
      }

      .cls-2 {
        fill: #fff;
      }
    </style>
  </defs>
  <!-- Generator: Adobe Illustrator 28.7.3, SVG Export Plug-In . SVG Version: 1.2.0 Build 164)  -->
  <g>
    <g id="Layer_1">
      <g>
        <g>
          <path class="cls-1" d="M169.53,46.54c-1.98-1.39-5-2.09-9.08-2.09h-6.11v65.98h6.11c4.08,0,7.1-.69,9.08-2.08,1.97-1.38,2.96-3.99,2.96-7.81v-46.17c0-3.83-.99-6.44-2.96-7.82Z"/>
          <path class="cls-1" d="M86.19,46.54c-1.98-1.39-5-2.09-9.08-2.09h-6.11v65.98h6.11c4.08,0,7.1-.69,9.08-2.08,1.97-1.38,2.96-3.99,2.96-7.81v-46.17c0-3.83-.99-6.44-2.96-7.82Z"/>
          <path class="cls-1" d="M264.26.11H.32v117.63c0,34.26,27.68,62.03,61.83,62.03h263.94V62.13C326.09,27.88,298.4.11,264.26.11ZM117.11,91.66c0,4.69-.68,8.82-2.04,12.41-1.36,3.58-3.67,6.6-6.94,9.04-3.27,2.44-7.6,4.28-12.96,5.53-5.37,1.24-12.13,1.87-20.28,1.87h-3.89v25.11h-17.93c-5.54,0-10.03-4.51-10.03-10.07V34.25h31.85c8.15,0,14.91.65,20.28,1.94,5.37,1.3,9.69,3.16,12.96,5.6,3.27,2.44,5.58,5.46,6.94,9.04,1.36,3.59,2.04,7.68,2.04,12.27v28.57ZM200.46,91.66c0,4.69-.68,8.82-2.04,12.41-1.36,3.58-3.67,6.6-6.94,9.04-3.27,2.44-7.6,4.28-12.96,5.53-5.37,1.24-12.13,1.87-20.28,1.87h-3.89v25.11h-17.93c-5.54,0-10.03-4.51-10.03-10.07V34.25h31.85c8.15,0,14.91.65,20.28,1.94,5.37,1.3,9.69,3.16,12.96,5.6,3.27,2.44,5.58,5.46,6.94,9.04,1.36,3.59,2.04,7.68,2.04,12.27v28.57ZM254.93,41.73c-2.22,0-4.41.26-6.57.79-2.16.53-4.11,1.44-5.83,2.72-1.74,1.3-3.12,3.01-4.17,5.17-1.05,2.15-1.57,4.81-1.57,7.96v64.26c0,5.26,1.17,8.8,3.52,10.62,2.34,1.82,5.13,2.72,8.34,2.72,2.1,0,3.64-.14,4.63-.43.99-.29,1.67-.76,2.04-1.44-.13-.67-.22-1.81-.28-3.44-.06-1.62-.09-1.06-.09-2.92v-28.73c-2.84.1-5.06.17-6.67.21-1.61.05-2.9.12-3.89.22v-12.1c1.36.19,2.87.29,4.54.29h24.11c4.86,0,8.81,3.92,8.86,8.79l.46,42.3c-3.46.19-6.55.71-9.26,1.58-2.72.86-5.4,1.8-8.05,2.79-2.66,1.01-5.4,1.92-8.24,2.73-2.84.81-6.05,1.22-9.63,1.22-7.78,0-13.93-.55-18.43-1.65-4.5-1.1-8.36-3.08-11.57-5.96-1.36-1.15-2.53-2.48-3.52-4.01-.99-1.53-1.79-3.44-2.41-5.75-.62-2.29-1.11-5.06-1.48-8.32-.37-3.25-.56-7.22-.56-11.91v-39.18c0-4.11.12-7.8.37-11.05.24-3.25.71-6.1,1.39-8.54.67-2.44,1.6-4.56,2.78-6.39,1.17-1.81,2.68-3.4,4.54-4.74,2.84-2.2,6.67-3.87,11.48-5.02,4.81-1.15,10.92-1.73,18.33-1.73,6.54,0,12.06.62,16.57,1.87,4.5,1.24,8.18,2.9,11.02,4.95,2.84,2.06,4.88,4.43,6.11,7.1,1.23,2.68,1.84,6.29,1.84,9.16h-.02c.01.24.04.5.04.75,0,8.85-7.15,16.02-15.97,16.02s-15.97-7.17-15.97-16.02c0-6.3,3.63-11.73,8.9-14.35-1.82-.37-3.7-.56-5.67-.56Z"/>
        </g>
        <g>
          <path class="cls-2" d="M108.13,41.78c-3.27-2.44-7.6-4.3-12.96-5.6-5.37-1.29-12.13-1.94-20.28-1.94h-31.85v101.3c0,5.56,4.49,10.07,10.03,10.07h17.93v-25.11h3.89c8.15,0,14.91-.62,20.28-1.87,5.37-1.24,9.69-3.08,12.96-5.53,3.27-2.44,5.58-5.46,6.94-9.04,1.36-3.59,2.04-7.73,2.04-12.41v-28.57c0-4.59-.68-8.68-2.04-12.27-1.36-3.58-3.67-6.6-6.94-9.04ZM89.15,100.54c0,3.83-.99,6.43-2.96,7.81-1.98,1.39-5,2.08-9.08,2.08h-6.11V44.46h6.11c4.08,0,7.1.69,9.08,2.09,1.97,1.38,2.96,3.99,2.96,7.82v46.17Z"/>
          <path class="cls-2" d="M191.48,41.78c-3.27-2.44-7.6-4.3-12.96-5.6-5.37-1.29-12.13-1.94-20.28-1.94h-31.85v101.3c0,5.56,4.49,10.07,10.03,10.07h17.93v-25.11h3.89c8.15,0,14.91-.62,20.28-1.87,5.37-1.24,9.69-3.08,12.96-5.53,3.27-2.44,5.58-5.46,6.94-9.04,1.36-3.59,2.04-7.73,2.04-12.41v-28.57c0-4.59-.68-8.68-2.04-12.27-1.36-3.58-3.67-6.6-6.94-9.04ZM172.49,100.54c0,3.83-.99,6.43-2.96,7.81-1.98,1.39-5,2.08-9.08,2.08h-6.11V44.46h6.11c4.08,0,7.1.69,9.08,2.09,1.97,1.38,2.96,3.99,2.96,7.82v46.17Z"/>
          <path class="cls-2" d="M273.02,87.64h-24.11c-1.67,0-3.18-.1-4.54-.29v12.1c.99-.1,2.28-.17,3.89-.22,1.6-.04,3.83-.11,6.67-.21v28.73c0,1.87.03,1.3.09,2.92.06,1.63.15,2.78.28,3.44-.37.67-1.05,1.15-2.04,1.44-.99.29-2.53.43-4.63.43-3.21,0-5.99-.9-8.34-2.72-2.34-1.81-3.52-5.35-3.52-10.62V58.38c0-3.15.52-5.81,1.57-7.96,1.05-2.15,2.44-3.87,4.17-5.17,1.72-1.29,3.67-2.2,5.83-2.72,2.16-.53,4.35-.79,6.57-.79,1.97,0,3.85.2,5.67.56-5.27,2.62-8.9,8.05-8.9,14.35,0,8.85,7.15,16.02,15.97,16.02s15.97-7.17,15.97-16.02c0-.26-.03-.51-.04-.77h.02c0-2.86-.6-6.47-1.84-9.15-1.23-2.67-3.27-5.05-6.11-7.1-2.84-2.05-6.52-3.71-11.02-4.95-4.5-1.24-10.03-1.87-16.57-1.87-7.41,0-13.52.58-18.33,1.73-4.81,1.15-8.65,2.82-11.48,5.02-1.85,1.34-3.37,2.92-4.54,4.74-1.18,1.82-2.1,3.94-2.78,6.39-.68,2.44-1.15,5.29-1.39,8.54-.25,3.25-.37,6.94-.37,11.05v39.18c0,4.69.19,8.66.56,11.91.37,3.26.86,6.03,1.48,8.32.62,2.3,1.42,4.21,2.41,5.75.98,1.53,2.16,2.86,3.52,4.01,3.21,2.87,7.07,4.86,11.57,5.96,4.5,1.1,10.65,1.65,18.43,1.65,3.58,0,6.79-.41,9.63-1.22,2.84-.81,5.58-1.73,8.24-2.73,2.65-1,5.34-1.94,8.05-2.79,2.71-.87,5.8-1.38,9.26-1.58l-.46-42.3c-.05-4.87-4-8.79-8.86-8.79Z"/>
        </g>
      </g>
    </g>
  </g>
</svg>