<?xml version="1.0" encoding="UTF-8"?>
<svg xmlns="http://www.w3.org/2000/svg" width="14400" height="14400" version="1.1" viewBox="0 0 14400 14400">
  <defs>
    <style>
      .cls-1 {
        fill: #3f105e;
      }

      .cls-2 {
        fill: #fff;
      }
    </style>
  </defs>
  <!-- Generator: Adobe Illustrator 28.7.3, SVG Export Plug-In . SVG Version: 1.2.0 Build 164)  -->
  <g>
    <g id="Layer_1">
      <g>
        <g>
          <path class="cls-1" d="M7117,7169.38c-1.35-.95-3.42-1.42-6.21-1.42h-4.18v27.19h4.18c2.79,0,4.86-.45,6.21-1.37,1.35-.91,2.03-2.68,2.03-5.29v-13.78c0-2.61-.68-4.39-2.03-5.33Z"/>
          <path class="cls-1" d="M7051.52,7198.34c-.84,1.15-1.39,2.54-1.65,4.21-.25,1.66-.38,3.64-.38,5.92v11.42c0,3.07.46,5.08,1.39,6.02.93.94,2.49,1.42,4.69,1.42,2.87,0,4.98-1.18,6.33-3.52v-30.01c-2.79.45-5,1.04-6.65,1.76-1.65.72-2.9,1.65-3.74,2.79Z"/>
          <path class="cls-1" d="M7230.52,7169.38c-1.35-.95-3.42-1.42-6.21-1.42h-4.18v62.01h4.18c2.79,0,4.86-.47,6.21-1.42,1.35-.94,2.03-2.72,2.03-5.33v-48.5c0-2.61-.68-4.39-2.03-5.33Z"/>
          <path class="cls-1" d="M7422.94,7134.49h-473.44v103.47c0,14.67,11.89,26.56,26.56,26.56h473.44v-103.47c0-14.67-11.89-26.56-26.56-26.56ZM7027.26,7200.14c0,3.19-.46,6.01-1.4,8.46-.93,2.44-2.51,4.5-4.75,6.16-2.24,1.67-5.2,2.92-8.87,3.77-3.67.85-8.3,1.27-13.87,1.27h-2.66v17.12h-12.26c-3.79,0-6.86-3.07-6.86-6.86v-69.07h21.79c5.57,0,10.2.44,13.87,1.32,3.67.88,6.63,2.16,8.87,3.82,2.23,1.67,3.82,3.72,4.75,6.16.93,2.45,1.4,5.24,1.4,8.37v19.48ZM7251.68,7217.26c0,3.13-.46,5.92-1.4,8.37-.93,2.44-2.51,4.5-4.75,6.16-2.24,1.66-5.2,2.93-8.87,3.82-3.67.88-8.3,1.32-13.87,1.32h-21.79v-2.27c-.79.67-1.74,1.27-2.87,1.78-2.15.98-4.58,1.47-7.28,1.47-1.69,0-3.26-.11-4.69-.35-1.44-.23-2.77-.63-3.99-1.22-1.23-.59-2.32-1.39-3.29-2.4-.97-1.01-1.79-2.33-2.47-3.96-1.94,2.68-4.29,4.66-7.03,5.97-2.74,1.31-6.14,1.96-10.19,1.96-2.28,0-4.4-.21-6.34-.64-1.94-.42-3.65-1.25-5.13-2.49-.47-.4-.89-.86-1.3-1.37-.94,1.15-2.25,2.16-3.97,2.98-2.11,1.01-5.15,1.52-9.12,1.52-1.94,0-3.78-.21-5.51-.64-1.73-.42-3.27-1.1-4.62-2.05-1.35-.94-2.4-2.15-3.17-3.62s-1.14-3.24-1.14-5.33v-19.65c0-1.89-.65-3.2-1.96-3.92-1.31-.72-3.36-1.07-6.14-1.07h-4.18v35.31h-19.13v-1.69c-.62.43-1.29.84-2.08,1.2-2.15.98-4.58,1.47-7.28,1.47-1.69,0-3.26-.11-4.69-.35-1.44-.23-2.77-.63-3.99-1.22-1.23-.59-2.32-1.39-3.29-2.4-.97-1.01-1.79-2.33-2.47-3.96-1.94,2.68-4.29,4.66-7.03,5.97-2.74,1.31-6.14,1.96-10.19,1.96-2.28,0-4.4-.21-6.34-.64-1.94-.42-3.65-1.25-5.13-2.49-1.48-1.24-2.62-3.02-3.42-5.33-.8-2.32-1.2-5.33-1.2-9.05v-6.85c0-1.95.1-3.82.32-5.58.21-1.76.63-3.42,1.27-4.99.63-1.56,1.52-3.03,2.66-4.41,1.14-1.37,2.68-2.67,4.62-3.91,3.21-2.08,6.59-3.69,10.13-4.8,3.55-1.11,7.73-2.08,12.54-2.93v-14.08c0-2.28-.84-3.93-2.53-4.94-1.69-1.01-3.76-1.52-6.21-1.52-1.6,0-3.25.2-4.94.59-.07.02-.14.04-.21.06,3.06,1.93,5.1,5.34,5.1,9.23,0,6.03-4.89,10.92-10.92,10.92s-10.92-4.89-10.92-10.92c0-.84.1-1.66.28-2.45.32-1.89,1.1-3.6,2.35-5.1,1.69-2.02,3.87-3.67,6.53-4.94,2.66-1.27,5.68-2.22,9.06-2.84,3.37-.62,6.71-.93,10.01-.93,2.87,0,5.59.24,8.17.73,2.57.49,4.85,1.24,6.84,2.25,1.98,1.01,3.56,2.28,4.75,3.82,1.18,1.54,1.77,3.34,1.77,5.43v56.66c0,1.1.34,1.92,1.01,2.44.68.53,1.56.78,2.66.78s1.96-.35,2.78-1.01v-70.13h26.09c8.95,0,15.29,1.14,19,3.42,3.72,2.29,5.57,5.81,5.57,10.57v10.18c0,3.26-.72,5.84-2.15,7.73-1.44,1.89-3.76,3.3-6.97,4.21v.29c2.45.52,4.56,1.52,6.33,2.99,1.77,1.46,2.66,3.76,2.66,6.9v21.63c0,1.1.34,1.92,1.01,2.44.68.53,1.56.78,2.66.78,1.21,0,2.26-.46,3.15-1.35-.19-.43-.38-.87-.55-1.34-.8-2.32-1.2-5.33-1.2-9.05v-6.85c0-1.95.1-3.82.32-5.58.21-1.76.63-3.42,1.27-4.99.63-1.56,1.52-3.03,2.66-4.41,1.14-1.37,2.68-2.67,4.62-3.91,3.21-2.08,6.59-3.69,10.13-4.8,3.55-1.11,7.73-2.08,12.54-2.93v-14.08c0-2.28-.84-3.93-2.53-4.94-1.69-1.01-3.76-1.52-6.21-1.52-1.6,0-3.25.2-4.94.59-.07.02-.14.04-.21.06,3.06,1.93,5.1,5.34,5.1,9.23,0,6.03-4.89,10.92-10.92,10.92s-10.92-4.89-10.92-10.92c0-.84.1-1.66.28-2.45.32-1.89,1.1-3.6,2.35-5.1,1.69-2.02,3.87-3.67,6.53-4.94,2.66-1.27,5.68-2.22,9.06-2.84,3.37-.62,6.71-.93,10.01-.93,2.87,0,5.59.24,8.17.73,2.57.49,4.85,1.24,6.84,2.25,1.98,1.01,3.56,2.28,4.75,3.82,1.18,1.54,1.77,3.34,1.77,5.43v56.66c0,1.1.34,1.92,1.01,2.44.68.53,1.56.78,2.66.78,1.27,0,2.37-.49,3.29-1.47l.27-.48v-69.19h21.79c5.57,0,10.2.44,13.87,1.32,3.67.88,6.63,2.16,8.87,3.82,2.23,1.67,3.82,3.72,4.75,6.16.93,2.45,1.4,5.24,1.4,8.37v36.6ZM7276.67,7236.93h-12.46c-3.68,0-6.67-2.98-6.67-6.67v-69.27h12.99c3.39,0,6.14,2.75,6.14,6.14v69.79ZM7314.61,7166.1c-1.52,0-3.02.18-4.5.54-1.48.36-2.81.98-3.99,1.86-1.19.88-2.13,2.05-2.85,3.52-.72,1.47-1.07,3.28-1.07,5.43v43.81c0,3.59.8,6,2.4,7.24,1.6,1.24,3.51,1.86,5.7,1.86,1.43,0,2.49-.1,3.17-.29.68-.2,1.14-.52,1.4-.98-.09-.45-.15-1.24-.19-2.35-.04-1.11-.06-.72-.06-1.99v-19.59c-1.94.07-3.46.11-4.56.14-1.1.04-1.98.08-2.66.15v-8.25c.93.13,1.96.2,3.1.2h16.49c3.32,0,6.02,2.67,6.06,6l.32,28.84c-2.37.13-4.48.48-6.34,1.08-1.86.59-3.7,1.22-5.51,1.91-1.82.69-3.7,1.31-5.64,1.86-1.94.55-4.14.83-6.59.83-5.32,0-9.53-.38-12.61-1.13-3.08-.75-5.72-2.1-7.92-4.06-.93-.78-1.73-1.69-2.4-2.74-.68-1.05-1.23-2.35-1.65-3.92-.43-1.56-.76-3.45-1.01-5.67-.25-2.22-.38-4.92-.38-8.12v-26.72c0-2.8.08-5.32.25-7.53.17-2.22.48-4.16.95-5.82.46-1.67,1.09-3.11,1.9-4.35.8-1.24,1.84-2.32,3.1-3.23,1.94-1.5,4.56-2.64,7.86-3.42,3.29-.78,7.47-1.18,12.54-1.18,4.47,0,8.25.42,11.33,1.27,3.08.85,5.59,1.98,7.54,3.37,1.94,1.4,3.34,3.02,4.18,4.84.84,1.83,1.26,4.29,1.26,6.25h-.01c0,.17.03.34.03.51,0,6.03-4.89,10.92-10.92,10.92s-10.92-4.89-10.92-10.92c0-4.29,2.48-8,6.09-9.78-1.24-.25-2.53-.38-3.88-.38ZM7421.62,7236.93h-12.39c-3.65,0-6.61-2.96-6.61-6.61v-58.75c0-1.24-.85-1.86-2.53-1.86-1.27,0-2.81.34-4.62,1.03-1.82.69-3.57,1.55-5.26,2.59v63.59h-12.52c-3.65,0-6.61-2.96-6.61-6.61v-58.75c0-1.24-.89-1.86-2.66-1.86-1.27,0-2.79.34-4.56,1.03-1.77.69-3.51,1.55-5.19,2.59v63.59h-12.52c-3.65,0-6.61-2.96-6.61-6.61v-69.33h12.96c3.4,0,6.16,2.76,6.16,6.16,2.45-1.76,5.25-3.39,8.42-4.89,3.17-1.5,6.86-2.25,11.08-2.25,3.12,0,5.76.64,7.92,1.91,2.15,1.27,3.48,3.05,3.99,5.33,2.62-1.76,5.51-3.41,8.68-4.95,3.17-1.53,6.86-2.3,11.08-2.3,3.46,0,6.29.78,8.49,2.35,2.2,1.57,3.29,3.79,3.29,6.66v67.91Z"/>
          <path class="cls-1" d="M7164.25,7198.34c-.84,1.15-1.39,2.54-1.65,4.21-.25,1.66-.38,3.64-.38,5.92v11.42c0,3.07.46,5.08,1.39,6.02.93.94,2.49,1.42,4.69,1.42,2.87,0,4.98-1.18,6.33-3.52v-30.01c-2.79.45-5,1.04-6.65,1.76-1.65.72-2.9,1.65-3.74,2.79Z"/>
          <path class="cls-1" d="M7006.1,7169.38c-1.35-.95-3.42-1.42-6.21-1.42h-4.18v44.99h4.18c2.79,0,4.86-.47,6.21-1.42,1.35-.94,2.03-2.72,2.03-5.33v-31.48c0-2.61-.68-4.39-2.03-5.33Z"/>
        </g>
        <g>
          <path class="cls-2" d="M7021.11,7166.13c-2.24-1.66-5.2-2.93-8.87-3.82-3.67-.88-8.3-1.32-13.87-1.32h-21.79v69.07c0,3.79,3.07,6.86,6.86,6.86h12.26v-17.12h2.66c5.57,0,10.2-.42,13.87-1.27,3.67-.85,6.63-2.1,8.87-3.77,2.23-1.67,3.82-3.72,4.75-6.16.93-2.45,1.4-5.27,1.4-8.46v-19.48c0-3.13-.46-5.92-1.4-8.37-.93-2.44-2.51-4.5-4.75-6.16ZM7008.13,7206.19c0,2.61-.68,4.38-2.03,5.33-1.35.95-3.42,1.42-6.21,1.42h-4.18v-44.99h4.18c2.79,0,4.86.47,6.21,1.42,1.35.94,2.03,2.72,2.03,5.33v31.48Z"/>
          <path class="cls-2" d="M7250.28,7172.29c-.93-2.44-2.51-4.5-4.75-6.16-2.24-1.66-5.2-2.93-8.87-3.82-3.67-.88-8.3-1.32-13.87-1.32h-21.79v69.19l-.27.48c-.93.98-2.03,1.47-3.29,1.47-1.1,0-1.98-.26-2.66-.78-.68-.52-1.01-1.34-1.01-2.44v-56.66c0-2.08-.59-3.89-1.77-5.43-1.18-1.54-2.76-2.81-4.75-3.82-1.99-1.01-4.27-1.76-6.84-2.25-2.57-.49-5.3-.73-8.17-.73-3.29,0-6.63.31-10.01.93-3.38.62-6.4,1.56-9.06,2.84-2.66,1.27-4.84,2.92-6.53,4.94-1.25,1.5-2.03,3.2-2.35,5.1-.18.79-.28,1.6-.28,2.45,0,6.03,4.89,10.92,10.92,10.92s10.92-4.89,10.92-10.92c0-3.89-2.04-7.3-5.1-9.23.07-.02.14-.04.21-.06,1.69-.39,3.34-.59,4.94-.59,2.45,0,4.52.51,6.21,1.52,1.69,1.01,2.53,2.66,2.53,4.94v14.08c-4.81.85-8.99,1.83-12.54,2.93-3.54,1.11-6.92,2.71-10.13,4.8-1.94,1.24-3.48,2.54-4.62,3.91-1.14,1.37-2.03,2.84-2.66,4.41-.63,1.57-1.06,3.23-1.27,4.99-.21,1.76-.32,3.62-.32,5.58v6.85c0,3.72.4,6.74,1.2,9.05.17.47.35.91.55,1.34-.9.89-1.95,1.35-3.15,1.35-1.1,0-1.98-.26-2.66-.78-.68-.52-1.01-1.34-1.01-2.44v-21.63c0-3.14-.89-5.43-2.66-6.9-1.77-1.47-3.88-2.47-6.33-2.99v-.29c3.21-.91,5.53-2.32,6.97-4.21,1.43-1.89,2.15-4.47,2.15-7.73v-10.18c0-4.76-1.86-8.28-5.57-10.57-3.71-2.28-10.05-3.42-19-3.42h-26.09v70.13c-.81.66-1.73,1.01-2.78,1.01-1.1,0-1.98-.26-2.66-.78-.68-.52-1.01-1.34-1.01-2.44v-56.66c0-2.08-.59-3.89-1.77-5.43-1.18-1.54-2.76-2.81-4.75-3.82-1.99-1.01-4.27-1.76-6.84-2.25-2.57-.49-5.3-.73-8.17-.73-3.29,0-6.63.31-10.01.93-3.38.62-6.4,1.56-9.06,2.84-2.66,1.27-4.84,2.92-6.53,4.94-1.25,1.5-2.03,3.2-2.35,5.1-.18.79-.28,1.6-.28,2.45,0,6.03,4.89,10.92,10.92,10.92s10.92-4.89,10.92-10.92c0-3.89-2.04-7.3-5.1-9.23.07-.02.14-.04.21-.06,1.69-.39,3.34-.59,4.94-.59,2.45,0,4.52.51,6.21,1.52,1.69,1.01,2.53,2.66,2.53,4.94v14.08c-4.81.85-8.99,1.83-12.54,2.93-3.54,1.11-6.92,2.71-10.13,4.8-1.94,1.24-3.48,2.54-4.62,3.91-1.14,1.37-2.03,2.84-2.66,4.41-.63,1.57-1.06,3.23-1.27,4.99-.21,1.76-.32,3.62-.32,5.58v6.85c0,3.72.4,6.74,1.2,9.05.8,2.31,1.94,4.09,3.42,5.33,1.48,1.24,3.19,2.07,5.13,2.49,1.94.42,4.06.64,6.34.64,4.05,0,7.45-.65,10.19-1.96,2.74-1.3,5.09-3.29,7.03-5.97.68,1.63,1.5,2.95,2.47,3.96.97,1.02,2.07,1.81,3.29,2.4,1.22.59,2.55.99,3.99,1.22,1.43.23,3,.35,4.69.35,2.7,0,5.13-.49,7.28-1.47.78-.36,1.46-.76,2.08-1.2v1.69h19.13v-35.31h4.18c2.79,0,4.83.36,6.14,1.07,1.31.72,1.96,2.02,1.96,3.92v19.65c0,2.09.38,3.86,1.14,5.33s1.82,2.68,3.17,3.62c1.35.95,2.89,1.63,4.62,2.05,1.73.42,3.57.64,5.51.64,3.97,0,7.01-.51,9.12-1.52,1.73-.83,3.03-1.83,3.97-2.98.4.5.83.97,1.3,1.37,1.48,1.24,3.19,2.07,5.13,2.49,1.94.42,4.06.64,6.34.64,4.05,0,7.45-.65,10.19-1.96,2.74-1.3,5.09-3.29,7.03-5.97.68,1.63,1.5,2.95,2.47,3.96.97,1.02,2.07,1.81,3.29,2.4,1.22.59,2.55.99,3.99,1.22,1.43.23,3,.35,4.69.35,2.7,0,5.13-.49,7.28-1.47,1.13-.51,2.08-1.11,2.87-1.78v2.27h21.79c5.57,0,10.2-.44,13.87-1.32,3.67-.88,6.63-2.16,8.87-3.82,2.23-1.67,3.82-3.72,4.75-6.16.93-2.45,1.4-5.24,1.4-8.37v-36.6c0-3.13-.46-5.92-1.4-8.37ZM7061.91,7223.8c-1.35,2.35-3.46,3.52-6.33,3.52-2.2,0-3.76-.48-4.69-1.42-.93-.94-1.39-2.95-1.39-6.02v-11.42c0-2.28.13-4.26.38-5.92.25-1.67.8-3.06,1.65-4.21.84-1.14,2.09-2.07,3.74-2.79,1.65-.72,3.86-1.3,6.65-1.76v30.01ZM7119.02,7188.49c0,2.61-.68,4.37-2.03,5.29-1.35.91-3.42,1.37-6.21,1.37h-4.18v-27.19h4.18c2.79,0,4.86.47,6.21,1.42,1.35.94,2.03,2.72,2.03,5.33v13.78ZM7174.64,7223.8c-1.35,2.35-3.46,3.52-6.33,3.52-2.2,0-3.76-.48-4.69-1.42-.93-.94-1.39-2.95-1.39-6.02v-11.42c0-2.28.13-4.26.38-5.92.25-1.67.8-3.06,1.65-4.21.84-1.14,2.09-2.07,3.74-2.79,1.65-.72,3.86-1.3,6.65-1.76v30.01ZM7232.55,7223.21c0,2.61-.68,4.39-2.03,5.33-1.35.95-3.42,1.42-6.21,1.42h-4.18v-62.01h4.18c2.79,0,4.86.47,6.21,1.42,1.35.94,2.03,2.72,2.03,5.33v48.5Z"/>
          <path class="cls-2" d="M7270.53,7160.99h-12.99v69.27c0,3.68,2.98,6.67,6.67,6.67h12.46v-69.79c0-3.39-2.75-6.14-6.14-6.14Z"/>
          <path class="cls-2" d="M7418.33,7162.36c-2.2-1.56-5.03-2.35-8.49-2.35-4.23,0-7.92.77-11.08,2.3-3.17,1.54-6.06,3.18-8.68,4.95-.51-2.29-1.84-4.06-3.99-5.33-2.15-1.27-4.79-1.91-7.92-1.91-4.23,0-7.92.75-11.08,2.25-3.17,1.5-5.98,3.13-8.42,4.89,0-3.4-2.76-6.16-6.16-6.16h-12.96v69.33c0,3.65,2.96,6.61,6.61,6.61h12.52v-63.59c1.69-1.04,3.42-1.91,5.19-2.59,1.77-.69,3.29-1.03,4.56-1.03,1.77,0,2.66.62,2.66,1.86v58.75c0,3.65,2.96,6.61,6.61,6.61h12.52v-63.59c1.69-1.04,3.44-1.91,5.26-2.59,1.81-.69,3.36-1.03,4.62-1.03,1.69,0,2.53.62,2.53,1.86v58.75c0,3.65,2.96,6.61,6.61,6.61h12.39v-67.91c0-2.87-1.1-5.09-3.29-6.66Z"/>
          <path class="cls-2" d="M7312.4,7176.27c0,6.03,4.89,10.92,10.92,10.92s10.92-4.89,10.92-10.92c0-.18-.02-.35-.03-.52h.01c0-1.95-.41-4.41-1.26-6.24-.84-1.82-2.24-3.44-4.18-4.84-1.94-1.4-4.46-2.53-7.54-3.37-3.08-.85-6.86-1.27-11.33-1.27-5.07,0-9.25.39-12.54,1.18-3.29.78-5.91,1.92-7.86,3.42-1.27.91-2.3,1.99-3.1,3.23-.8,1.24-1.44,2.69-1.9,4.35-.47,1.67-.78,3.61-.95,5.82-.17,2.22-.25,4.73-.25,7.53v26.72c0,3.2.13,5.91.38,8.12.25,2.22.59,4.11,1.01,5.67.42,1.57.97,2.87,1.65,3.92.67,1.05,1.48,1.95,2.4,2.74,2.2,1.96,4.84,3.31,7.92,4.06,3.08.75,7.28,1.13,12.61,1.13,2.45,0,4.64-.28,6.59-.83,1.94-.56,3.82-1.18,5.64-1.86,1.81-.68,3.65-1.32,5.51-1.91,1.86-.59,3.97-.94,6.34-1.08l-.32-28.84c-.04-3.32-2.74-6-6.06-6h-16.49c-1.14,0-2.18-.07-3.1-.2v8.25c.68-.07,1.56-.11,2.66-.15,1.1-.03,2.62-.08,4.56-.14v19.59c0,1.27.02.89.06,1.99.04,1.11.1,1.89.19,2.35-.26.46-.72.78-1.4.98-.68.2-1.73.29-3.17.29-2.2,0-4.1-.62-5.7-1.86-1.6-1.24-2.4-3.65-2.4-7.24v-43.81c0-2.15.36-3.96,1.07-5.43.72-1.47,1.67-2.64,2.85-3.52,1.18-.88,2.51-1.5,3.99-1.86,1.48-.36,2.98-.54,4.5-.54,1.34,0,2.63.13,3.88.38-3.6,1.78-6.09,5.49-6.09,9.78Z"/>
        </g>
      </g>
    </g>
  </g>
</svg>