<?xml version="1.0" encoding="UTF-8"?><svg id="Layer_1" xmlns="http://www.w3.org/2000/svg" viewBox="0 0 14400 14400"><defs><style>.cls-1{fill:#fff;}</style></defs><path class="cls-1" d="M7000.58,7162.07c-2.52-1.87-5.84-3.3-9.97-4.29-4.13-.99-9.33-1.48-15.59-1.48h-24.5v77.66c0,4.26,3.45,7.72,7.72,7.72h13.79v-19.25h2.99c6.27,0,11.47-.48,15.59-1.43,4.13-.95,7.45-2.36,9.97-4.24,2.51-1.87,4.29-4.18,5.34-6.93,1.05-2.75,1.57-5.92,1.57-9.51v-21.9c0-3.52-.52-6.65-1.57-9.41-1.04-2.75-2.83-5.06-5.34-6.93ZM6985.98,7207.11c0,2.93-.76,4.93-2.28,5.99-1.52,1.07-3.85,1.6-6.98,1.6h-4.7v-50.58h4.7c3.13,0,5.46.53,6.98,1.6,1.52,1.06,2.28,3.06,2.28,6v35.4Z"/><path class="cls-1" d="M7252.9,7162.07c-2.52-1.87-5.84-3.3-9.97-4.29-4.13-.99-9.33-1.48-15.59-1.48h-24.5v78.01l-.31.32c-1.04,1.1-2.28,1.65-3.7,1.65-1.23,0-2.23-.29-2.99-.88-.76-.58-1.14-1.5-1.14-2.75v-63.71c0-2.34-.66-4.38-1.99-6.1-1.33-1.73-3.11-3.16-5.34-4.29-2.23-1.14-4.8-1.98-7.69-2.53-2.89-.55-5.96-.83-9.18-.83-3.7,0-7.46.35-11.25,1.05-3.8.7-7.19,1.76-10.18,3.19-2.99,1.43-5.44,3.28-7.34,5.55-1.41,1.69-2.28,3.6-2.64,5.73-.2.89-.32,1.8-.32,2.75,0,6.78,5.5,12.28,12.28,12.28s12.28-5.5,12.28-12.28c0-4.37-2.29-8.2-5.74-10.38.08-.02.16-.05.24-.07,1.9-.44,3.75-.66,5.55-.66,2.76,0,5.08.57,6.98,1.71,1.9,1.14,2.85,2.99,2.85,5.55v15.83c-5.41.95-10.11,2.05-14.1,3.3-3.99,1.25-7.78,3.05-11.39,5.39-2.19,1.4-3.92,2.86-5.2,4.4-1.28,1.54-2.28,3.2-2.99,4.96-.71,1.76-1.19,3.63-1.43,5.61-.24,1.98-.36,4.08-.36,6.27v7.7c0,4.18.45,7.57,1.35,10.18.19.53.4,1.03.61,1.51-1.01,1-2.19,1.51-3.55,1.51-1.23,0-2.23-.29-2.99-.88-.76-.58-1.14-1.5-1.14-2.75v-24.32c0-3.53-1-6.11-2.99-7.76-1.99-1.65-4.37-2.77-7.12-3.36v-.33c3.61-1.03,6.21-2.61,7.83-4.73,1.61-2.12,2.42-5.02,2.42-8.69v-11.44c0-5.35-2.09-9.31-6.27-11.89-4.18-2.56-11.3-3.85-21.36-3.85h-29.34v78.84c-.91.74-1.95,1.14-3.12,1.14-1.23,0-2.23-.29-2.99-.88-.76-.58-1.14-1.5-1.14-2.75v-63.71c0-2.34-.66-4.38-1.99-6.1-1.33-1.73-3.11-3.16-5.34-4.29-2.23-1.14-4.8-1.98-7.69-2.53-2.89-.55-5.96-.83-9.18-.83-3.7,0-7.46.35-11.25,1.05-3.8.7-7.19,1.76-10.18,3.19-2.99,1.43-5.44,3.28-7.34,5.55-1.41,1.69-2.28,3.6-2.64,5.73-.2.89-.32,1.8-.32,2.75,0,6.78,5.5,12.28,12.28,12.28s12.28-5.5,12.28-12.28c0-4.37-2.29-8.2-5.74-10.38.08-.02.16-.05.24-.07,1.9-.44,3.75-.66,5.55-.66,2.76,0,5.08.57,6.98,1.71,1.9,1.14,2.85,2.99,2.85,5.55v15.83c-5.41.95-10.11,2.05-14.1,3.3-3.99,1.25-7.78,3.05-11.39,5.39-2.19,1.4-3.92,2.86-5.2,4.4-1.28,1.54-2.28,3.2-2.99,4.96-.71,1.76-1.19,3.63-1.43,5.61-.24,1.98-.36,4.08-.36,6.27v7.7c0,4.18.45,7.57,1.35,10.18.9,2.6,2.19,4.6,3.85,6,1.66,1.39,3.58,2.32,5.77,2.8,2.18.48,4.56.72,7.12.72,4.55,0,8.38-.73,11.46-2.2,3.09-1.46,5.72-3.7,7.91-6.71.76,1.83,1.69,3.32,2.78,4.45,1.09,1.14,2.33,2.03,3.7,2.7,1.37.66,2.87,1.11,4.49,1.37,1.61.26,3.37.39,5.27.39,3.03,0,5.77-.55,8.19-1.65.88-.4,1.64-.86,2.33-1.35v1.9h21.51v-39.7h4.7c3.13,0,5.43.4,6.91,1.21,1.47.81,2.21,2.28,2.21,4.41v22.1c0,2.35.43,4.35,1.28,6s2.04,3.01,3.56,4.07c1.52,1.07,3.25,1.83,5.2,2.31,1.95.48,4.01.72,6.2.72,4.46,0,7.88-.57,10.25-1.71,1.94-.93,3.41-2.05,4.47-3.35.45.57.93,1.09,1.46,1.54,1.66,1.39,3.58,2.32,5.77,2.8,2.18.48,4.56.72,7.12.72,4.55,0,8.38-.73,11.46-2.2,3.09-1.46,5.72-3.7,7.91-6.71.76,1.83,1.69,3.32,2.78,4.45,1.09,1.14,2.33,2.03,3.7,2.7,1.37.66,2.87,1.11,4.49,1.37,1.61.26,3.37.39,5.27.39,3.03,0,5.77-.55,8.19-1.65,1.27-.58,2.33-1.25,3.22-2v2.56h24.5c6.27,0,11.47-.5,15.59-1.48,4.13-.99,7.45-2.42,9.97-4.29,2.51-1.87,4.29-4.18,5.34-6.93,1.05-2.75,1.57-5.89,1.57-9.41v-41.15c0-3.52-.52-6.65-1.57-9.41-1.04-2.75-2.83-5.06-5.34-6.93ZM7046.45,7226.91c-1.52,2.64-3.89,3.96-7.12,3.96-2.47,0-4.22-.54-5.27-1.6-1.04-1.06-1.56-3.32-1.56-6.77v-12.84c0-2.57.14-4.79.43-6.65.29-1.87.9-3.44,1.85-4.73.95-1.28,2.35-2.32,4.2-3.14,1.85-.81,4.34-1.46,7.48-1.97v33.74ZM7110.66,7187.21c0,2.93-.76,4.92-2.28,5.94-1.52,1.03-3.85,1.54-6.98,1.54h-4.7v-30.57h4.7c3.13,0,5.46.53,6.98,1.6,1.52,1.06,2.28,3.06,2.28,6v15.5ZM7173.2,7226.91c-1.52,2.64-3.89,3.96-7.12,3.96-2.47,0-4.22-.54-5.27-1.6-1.04-1.06-1.56-3.32-1.56-6.77v-12.84c0-2.57.14-4.79.43-6.65.29-1.87.9-3.44,1.85-4.73.95-1.28,2.35-2.32,4.2-3.14,1.85-.81,4.34-1.46,7.48-1.97v33.74ZM7238.3,7226.25c0,2.93-.76,4.94-2.28,6-1.52,1.07-3.85,1.6-6.98,1.6h-4.7v-69.72h4.7c3.13,0,5.46.53,6.98,1.6,1.52,1.06,2.28,3.06,2.28,6v54.53Z"/><path class="cls-1" d="M7281.01,7156.29h-14.6v77.88c0,4.14,3.36,7.49,7.49,7.49h14.01v-78.47c0-3.81-3.09-6.9-6.9-6.9Z"/><path class="cls-1" d="M7447.18,7157.83c-2.47-1.76-5.65-2.64-9.54-2.64-4.75,0-8.9.87-12.46,2.59-3.56,1.73-6.81,3.58-9.76,5.56-.57-2.57-2.06-4.57-4.49-6s-5.39-2.15-8.9-2.15c-4.75,0-8.9.85-12.46,2.53-3.56,1.69-6.72,3.52-9.47,5.5,0-3.83-3.1-6.93-6.93-6.93h-14.58v77.95c0,4.1,3.33,7.43,7.43,7.43h14.08v-71.5c1.9-1.17,3.84-2.14,5.84-2.91s3.7-1.16,5.13-1.16c1.99,0,2.99.7,2.99,2.09v66.05c0,4.1,3.33,7.43,7.43,7.43h14.08v-71.5c1.9-1.17,3.87-2.14,5.91-2.91,2.04-.77,3.77-1.16,5.2-1.16,1.9,0,2.85.7,2.85,2.09v66.05c0,4.1,3.33,7.43,7.43,7.43h13.93v-76.35c0-3.23-1.23-5.72-3.7-7.49Z"/><path class="cls-1" d="M7328.08,7173.46c0,6.78,5.5,12.28,12.28,12.28s12.28-5.5,12.28-12.28c0-.2-.02-.39-.03-.59h.02c0-2.19-.46-4.96-1.41-7.01-.95-2.05-2.52-3.87-4.7-5.45-2.19-1.57-5.01-2.84-8.47-3.79-3.46-.95-7.71-1.43-12.74-1.43-5.7,0-10.4.44-14.1,1.32-3.7.88-6.65,2.16-8.83,3.85-1.43,1.03-2.59,2.24-3.49,3.63-.9,1.4-1.62,3.02-2.13,4.9-.53,1.87-.88,4.06-1.07,6.55-.19,2.49-.29,5.32-.29,8.47v30.04c0,3.6.14,6.64.43,9.13.28,2.5.66,4.62,1.14,6.38.47,1.77,1.09,3.23,1.85,4.4.76,1.18,1.66,2.2,2.7,3.08,2.47,2.2,5.44,3.73,8.9,4.57,3.46.85,8.19,1.27,14.17,1.27,2.75,0,5.22-.32,7.41-.93,2.18-.62,4.29-1.32,6.34-2.1,2.04-.77,4.1-1.48,6.19-2.14,2.09-.66,4.46-1.06,7.12-1.21l-.35-32.43c-.04-3.73-3.08-6.74-6.81-6.74h-18.54c-1.28,0-2.45-.07-3.49-.22v9.27c.76-.07,1.76-.13,2.99-.17,1.23-.03,2.94-.09,5.13-.16v22.03c0,1.43.02,1,.07,2.24.05,1.25.12,2.13.22,2.64-.29.52-.81.88-1.57,1.1-.76.22-1.95.33-3.56.33-2.47,0-4.61-.69-6.41-2.09-1.8-1.39-2.7-4.1-2.7-8.14v-49.26c0-2.42.4-4.45,1.21-6.1.81-1.65,1.87-2.97,3.21-3.96,1.33-.99,2.82-1.69,4.49-2.09,1.66-.4,3.35-.6,5.05-.6,1.51,0,2.96.15,4.36.43-4.05,2.01-6.85,6.17-6.85,11Z"/></svg>