<?xml version="1.0" encoding="UTF-8"?>
<svg xmlns="http://www.w3.org/2000/svg" width="14400" height="14400" version="1.1" viewBox="0 0 14400 14400">
  <defs>
    <style>
      .cls-1 {
        fill: #3f105e;
      }
    </style>
  </defs>
  <!-- Generator: Adobe Illustrator 28.7.3, SVG Export Plug-In . SVG Version: 1.2.0 Build 164)  -->
  <g>
    <g id="Layer_1">
      <g>
        <path class="cls-1" d="M7124.88,7134.62c-4.42-3.28-10.27-5.8-17.53-7.54-7.26-1.74-16.4-2.61-27.41-2.61h-43.06v136.5c0,7.49,6.07,13.56,13.56,13.56h24.24v-33.84h5.26c11.02,0,20.15-.84,27.41-2.51,7.26-1.68,13.1-4.16,17.53-7.45,4.42-3.29,7.55-7.35,9.38-12.18,1.84-4.84,2.76-10.41,2.76-16.72v-38.49c0-6.18-.92-11.7-2.76-16.54-1.83-4.83-4.97-8.89-9.38-12.18ZM7099.21,7213.79c0,5.16-1.34,8.66-4,10.53-2.67,1.88-6.76,2.81-12.27,2.81h-8.26v-88.9h8.26c5.51,0,9.6.93,12.27,2.81,2.67,1.87,4,5.38,4,10.54v62.22Z"/>
        <path class="cls-1" d="M7237.54,7134.62c-4.42-3.28-10.27-5.8-17.53-7.54-7.26-1.74-16.4-2.61-27.41-2.61h-43.06v136.5c0,7.49,6.07,13.56,13.56,13.56h24.24v-33.84h5.26c11.02,0,20.15-.84,27.41-2.51,7.26-1.68,13.1-4.16,17.53-7.45,4.42-3.29,7.55-7.35,9.38-12.18,1.84-4.84,2.76-10.41,2.76-16.72v-38.49c0-6.18-.92-11.7-2.76-16.54-1.83-4.83-4.97-8.89-9.38-12.18ZM7211.88,7213.79c0,5.16-1.34,8.66-4,10.53-2.67,1.88-6.76,2.81-12.27,2.81h-8.26v-88.9h8.26c5.51,0,9.6.93,12.27,2.81,2.67,1.87,4,5.38,4,10.54v62.22Z"/>
        <path class="cls-1" d="M7347.77,7196.41h-32.59c-2.25,0-4.3-.13-6.13-.39v16.3c1.34-.13,3.09-.22,5.26-.29,2.17-.06,5.17-.15,9.01-.28v38.72c0,2.51.04,1.75.12,3.94.08,2.19.2,3.74.38,4.64-.51.91-1.42,1.55-2.76,1.94-1.34.39-3.42.58-6.26.58-4.34,0-8.1-1.22-11.27-3.67-3.17-2.44-4.75-7.21-4.75-14.31v-86.59c0-4.25.7-7.83,2.12-10.73,1.42-2.9,3.29-5.22,5.64-6.96,2.33-1.73,4.96-2.96,7.88-3.67,2.92-.71,5.88-1.06,8.88-1.06,2.66,0,5.21.27,7.66.76-7.12,3.53-12.03,10.85-12.03,19.34,0,11.92,9.66,21.59,21.59,21.59s21.59-9.66,21.59-21.59c0-.35-.04-.69-.05-1.04l.03.02c0-3.87-.82-8.73-2.48-12.35-1.67-3.6-4.42-6.8-8.26-9.57-3.84-2.76-8.81-4.99-14.9-6.67-6.09-1.68-13.56-2.51-22.4-2.51-10.02,0-18.28.78-24.78,2.33-6.51,1.55-11.69,3.8-15.52,6.76-2.51,1.81-4.55,3.94-6.14,6.39-1.59,2.45-2.84,5.31-3.75,8.6-.92,3.29-1.55,7.13-1.88,11.51-.34,4.38-.5,9.35-.5,14.88v52.8c0,6.33.25,11.67.76,16.05.5,4.39,1.16,8.12,2,11.21.83,3.1,1.92,5.68,3.25,7.74,1.33,2.07,2.92,3.86,4.75,5.41,4.34,3.87,9.56,6.55,15.65,8.03,6.09,1.49,14.39,2.23,24.91,2.23,4.84,0,9.17-.55,13.02-1.64,3.83-1.1,7.55-2.33,11.14-3.68,3.58-1.35,7.21-2.61,10.89-3.76,3.67-1.17,7.85-1.87,12.52-2.13l-.62-57c-.07-6.56-5.41-11.85-11.98-11.85Z"/>
      </g>
    </g>
  </g>
</svg>